<svg width="25" height="24" viewBox="0 0 25 24" fill="none" xmlns="http://www.w3.org/2000/svg">
<path d="M13.6665 6C13.6665 5.44772 13.2188 5 12.6665 5C12.1142 5 11.6665 5.44772 11.6665 6V8C11.6665 8.55228 12.1142 9 12.6665 9C13.2188 9 13.6665 8.55228 13.6665 8V6Z" fill="black"/>
<path fill-rule="evenodd" clip-rule="evenodd" d="M12.6665 1C8.80051 1 5.6665 4.13401 5.6665 8V16C5.6665 19.866 8.80051 23 12.6665 23C16.5325 23 19.6665 19.866 19.6665 16V8C19.6665 4.13401 16.5325 1 12.6665 1ZM7.6665 8C7.6665 5.23858 9.90508 3 12.6665 3C15.4279 3 17.6665 5.23858 17.6665 8V16C17.6665 18.7614 15.4279 21 12.6665 21C9.90508 21 7.6665 18.7614 7.6665 16V8Z" fill="black"/>
</svg>
