<svg width="24" height="24" viewBox="0 0 24 24" fill="none" xmlns="http://www.w3.org/2000/svg">
<path d="M6.99991 7.00002C7.55219 7.00002 7.99991 7.44774 7.99991 8.00002V9.00002H8.99991C9.55219 9.00002 9.99991 9.44774 9.99991 10C9.99991 10.5523 9.55219 11 8.99991 11H7.99991V12C7.99991 12.5523 7.55219 13 6.99991 13C6.44762 13 5.99991 12.5523 5.99991 12V11H4.99991C4.44762 11 3.99991 10.5523 3.99991 10C3.99991 9.44774 4.44762 9.00002 4.99991 9.00002H5.99991V8.00002C5.99991 7.44774 6.44762 7.00002 6.99991 7.00002Z" fill="black"/>
<path d="M15.9999 8.00002C15.9999 7.44774 16.4476 7.00002 16.9999 7.00002C17.5522 7.00002 17.9999 7.44774 17.9999 8.00002C17.9999 8.55231 17.5522 9.00002 16.9999 9.00002C16.4476 9.00002 15.9999 8.55231 15.9999 8.00002Z" fill="black"/>
<path d="M16.9999 11C16.4476 11 15.9999 11.4477 15.9999 12C15.9999 12.5523 16.4476 13 16.9999 13C17.5522 13 17.9999 12.5523 17.9999 12C17.9999 11.4477 17.5522 11 16.9999 11Z" fill="black"/>
<path d="M13.9999 10C13.9999 9.44774 14.4476 9.00002 14.9999 9.00002C15.5522 9.00002 15.9999 9.44774 15.9999 10C15.9999 10.5523 15.5522 11 14.9999 11C14.4476 11 13.9999 10.5523 13.9999 10Z" fill="black"/>
<path d="M18.9999 9.00002C18.4476 9.00002 17.9999 9.44774 17.9999 10C17.9999 10.5523 18.4476 11 18.9999 11C19.5522 11 19.9999 10.5523 19.9999 10C19.9999 9.44774 19.5522 9.00002 18.9999 9.00002Z" fill="black"/>
<path fill-rule="evenodd" clip-rule="evenodd" d="M5.52718 3.33743C6.51513 3.09044 7.55302 3.1303 8.51912 3.45233L9.54638 3.79475C9.95425 3.93071 10.3814 4.00002 10.8113 4.00002H13.1885C13.6184 4.00002 14.0456 3.93071 14.4534 3.79475L15.4807 3.45233C16.4468 3.1303 17.4847 3.09044 18.4726 3.33743C20.5408 3.85446 22.1052 5.54904 22.4557 7.65183L23.7493 15.4137C23.9511 16.6246 23.5557 17.8584 22.6877 18.7264C21.2033 20.2109 18.7965 20.2109 17.3121 18.7264L15.7573 17.1716C15.0071 16.4214 13.9897 16 12.9288 16H11.071C10.0101 16 8.99269 16.4214 8.24255 17.1716L6.68771 18.7264C5.20328 20.2109 2.79654 20.2109 1.3121 18.7264C0.444074 17.8584 0.048684 16.6246 0.250497 15.4137L1.54415 7.65183C1.89461 5.54904 3.45904 3.85446 5.52718 3.33743ZM7.88666 5.3497C7.28141 5.14795 6.63119 5.12298 6.01225 5.27771C4.71659 5.60163 3.7365 6.66326 3.51693 7.98063L2.22328 15.7425C2.12766 16.3163 2.31501 16.9009 2.72632 17.3122C3.4297 18.0156 4.57011 18.0156 5.2735 17.3122L6.82833 15.7574C7.95355 14.6322 9.47968 14 11.071 14H12.9288C14.5201 14 16.0463 14.6322 17.1715 15.7574L18.7263 17.3122C19.4297 18.0156 20.5701 18.0156 21.2735 17.3122C21.6848 16.9009 21.8722 16.3163 21.7765 15.7425L20.4829 7.98063C20.2633 6.66326 19.2832 5.60163 17.9876 5.27771C17.3686 5.12298 16.7184 5.14795 16.1132 5.3497L15.0859 5.69212C14.4741 5.89605 13.8334 6.00002 13.1885 6.00002H10.8113C10.1664 6.00002 9.52573 5.89605 8.91393 5.69212L7.88666 5.3497Z" fill="black"/>
</svg>
