<svg width="25" height="24" viewBox="0 0 25 24" fill="none" xmlns="http://www.w3.org/2000/svg">
<path d="M9.3335 2C9.3335 1.44772 8.88578 1 8.3335 1C7.78121 1 7.3335 1.44772 7.3335 2V3C7.3335 3.55228 7.78121 4 8.3335 4C8.88578 4 9.3335 3.55228 9.3335 3V2Z" fill="black"/>
<path d="M13.3335 2C13.3335 1.44772 12.8858 1 12.3335 1C11.7812 1 11.3335 1.44772 11.3335 2V3C11.3335 3.55228 11.7812 4 12.3335 4C12.8858 4 13.3335 3.55228 13.3335 3V2Z" fill="black"/>
<path d="M17.3335 2C17.3335 1.44772 16.8858 1 16.3335 1C15.7812 1 15.3335 1.44772 15.3335 2V3C15.3335 3.55228 15.7812 4 16.3335 4C16.8858 4 17.3335 3.55228 17.3335 3V2Z" fill="black"/>
<path d="M2.3335 7C1.78121 7 1.3335 7.44772 1.3335 8C1.3335 8.55228 1.78121 9 2.3335 9H3.3335C3.88578 9 4.3335 8.55228 4.3335 8C4.3335 7.44772 3.88578 7 3.3335 7H2.3335Z" fill="black"/>
<path d="M21.3335 7C20.7812 7 20.3335 7.44772 20.3335 8C20.3335 8.55228 20.7812 9 21.3335 9H22.3335C22.8858 9 23.3335 8.55228 23.3335 8C23.3335 7.44772 22.8858 7 22.3335 7H21.3335Z" fill="black"/>
<path d="M2.3335 11C1.78121 11 1.3335 11.4477 1.3335 12C1.3335 12.5523 1.78121 13 2.3335 13H3.3335C3.88578 13 4.3335 12.5523 4.3335 12C4.3335 11.4477 3.88578 11 3.3335 11H2.3335Z" fill="black"/>
<path d="M21.3335 11C20.7812 11 20.3335 11.4477 20.3335 12C20.3335 12.5523 20.7812 13 21.3335 13H22.3335C22.8858 13 23.3335 12.5523 23.3335 12C23.3335 11.4477 22.8858 11 22.3335 11H21.3335Z" fill="black"/>
<path d="M2.3335 15C1.78121 15 1.3335 15.4477 1.3335 16C1.3335 16.5523 1.78121 17 2.3335 17H3.3335C3.88578 17 4.3335 16.5523 4.3335 16C4.3335 15.4477 3.88578 15 3.3335 15H2.3335Z" fill="black"/>
<path d="M21.3335 15C20.7812 15 20.3335 15.4477 20.3335 16C20.3335 16.5523 20.7812 17 21.3335 17H22.3335C22.8858 17 23.3335 16.5523 23.3335 16C23.3335 15.4477 22.8858 15 22.3335 15H21.3335Z" fill="black"/>
<path d="M9.3335 21C9.3335 20.4477 8.88578 20 8.3335 20C7.78121 20 7.3335 20.4477 7.3335 21V22C7.3335 22.5523 7.78121 23 8.3335 23C8.88578 23 9.3335 22.5523 9.3335 22V21Z" fill="black"/>
<path d="M13.3335 21C13.3335 20.4477 12.8858 20 12.3335 20C11.7812 20 11.3335 20.4477 11.3335 21V22C11.3335 22.5523 11.7812 23 12.3335 23C12.8858 23 13.3335 22.5523 13.3335 22V21Z" fill="black"/>
<path d="M17.3335 21C17.3335 20.4477 16.8858 20 16.3335 20C15.7812 20 15.3335 20.4477 15.3335 21V22C15.3335 22.5523 15.7812 23 16.3335 23C16.8858 23 17.3335 22.5523 17.3335 22V21Z" fill="black"/>
<path fill-rule="evenodd" clip-rule="evenodd" d="M7.3335 5C6.22893 5 5.3335 5.89543 5.3335 7V17C5.3335 18.1046 6.22893 19 7.3335 19H17.3335C18.4381 19 19.3335 18.1046 19.3335 17V7C19.3335 5.89543 18.4381 5 17.3335 5H7.3335ZM7.3335 7H17.3335V17H7.3335V7Z" fill="black"/>
</svg>
