<svg width="24" height="24" viewBox="0 0 24 24" fill="none" xmlns="http://www.w3.org/2000/svg">
<path d="M7 4C6.44772 4 6 4.44772 6 5C6 5.55228 6.44772 6 7 6H11C11.5523 6 12 5.55228 12 5C12 4.44772 11.5523 4 11 4H7Z" fill="black"/>
<path d="M16 4C15.4477 4 15 4.44772 15 5C15 5.55228 15.4477 6 16 6H17C17.5523 6 18 5.55228 18 5C18 4.44772 17.5523 4 17 4H16Z" fill="black"/>
<path fill-rule="evenodd" clip-rule="evenodd" d="M12 8C8.68629 8 6 10.6863 6 14C6 17.3137 8.68629 20 12 20C15.3137 20 18 17.3137 18 14C18 10.6863 15.3137 8 12 8ZM8 14C8 11.7909 9.79086 10 12 10C14.2091 10 16 11.7909 16 14C16 16.2091 14.2091 18 12 18C9.79086 18 8 16.2091 8 14Z" fill="black"/>
<path fill-rule="evenodd" clip-rule="evenodd" d="M5 1C3.89543 1 3 1.89543 3 3V21C3 22.1046 3.89543 23 5 23H19C20.1046 23 21 22.1046 21 21V3C21 1.89543 20.1046 1 19 1H5ZM5 3L19 3V21H5V3Z" fill="black"/>
</svg>
