<svg width="25" height="24" viewBox="0 0 25 24" fill="none" xmlns="http://www.w3.org/2000/svg">
<path fill-rule="evenodd" clip-rule="evenodd" d="M8.3335 13C8.3335 10.2386 10.5721 8 13.3335 8C16.0949 8 18.3335 10.2386 18.3335 13C18.3335 15.7614 16.0949 18 13.3335 18C10.5721 18 8.3335 15.7614 8.3335 13ZM13.3335 10C11.6766 10 10.3335 11.3431 10.3335 13C10.3335 14.6569 11.6766 16 13.3335 16C14.9904 16 16.3335 14.6569 16.3335 13C16.3335 11.3431 14.9904 10 13.3335 10Z" fill="black"/>
<path d="M6.3335 11C6.88578 11 7.3335 10.5523 7.3335 10C7.3335 9.44772 6.88578 9 6.3335 9C5.78121 9 5.3335 9.44772 5.3335 10C5.3335 10.5523 5.78121 11 6.3335 11Z" fill="black"/>
<path fill-rule="evenodd" clip-rule="evenodd" d="M8.90771 4.3359C9.46411 3.5013 10.4008 3 11.4039 3H15.2631C16.2662 3 17.2029 3.5013 17.7593 4.3359L18.5718 5.5547C18.7573 5.8329 19.0695 6 19.4039 6H21.3335C22.4381 6 23.3335 6.89543 23.3335 8V19C23.3335 20.1046 22.4381 21 21.3335 21H3.3335C2.22893 21 1.3335 20.1046 1.3335 19V8C1.3335 6.89543 2.22893 6 3.3335 6H7.26313C7.59748 6 7.90971 5.8329 8.09518 5.5547L8.90771 4.3359ZM11.4039 5C11.0695 5 10.7573 5.1671 10.5718 5.4453L9.75928 6.6641C9.20288 7.4987 8.26619 8 7.26313 8H3.3335V19H21.3335V8H19.4039C18.4008 8 17.4641 7.4987 16.9077 6.6641L16.0952 5.4453C15.9097 5.1671 15.5975 5 15.2631 5H11.4039Z" fill="black"/>
</svg>
