<svg width="25" height="24" viewBox="0 0 25 24" fill="none" xmlns="http://www.w3.org/2000/svg">
<g clip-path="url(#clip0_6389_8643)">
<path fill-rule="evenodd" clip-rule="evenodd" d="M0.666504 4C0.666504 2.89543 1.56193 2 2.6665 2H22.6665C23.7711 2 24.6665 2.89543 24.6665 4V17C24.6665 18.1046 23.7711 19 22.6665 19H22.0539L22.6152 20.6838C22.7898 21.2077 22.5067 21.774 21.9827 21.9487C21.4588 22.1233 20.8925 21.8402 20.7178 21.3162L19.9457 19H5.38726L4.61519 21.3162C4.44054 21.8402 3.87422 22.1233 3.35028 21.9487C2.82633 21.774 2.54317 21.2077 2.71782 20.6838L3.27908 19H2.6665C1.56194 19 0.666504 18.1046 0.666504 17V4ZM20.6899 17C20.6744 16.9996 20.6589 16.9996 20.6434 17H4.68957C4.67406 16.9996 4.65859 16.9996 4.64315 17H2.6665V4H22.6665V17H20.6899Z" fill="black"/>
</g>
<defs>
<clipPath id="clip0_6389_8643">
<rect width="24" height="24" fill="white" transform="translate(0.666504)"/>
</clipPath>
</defs>
</svg>
